<svg width="16" height="16" viewBox="0 0 16 16" fill="none" xmlns="http://www.w3.org/2000/svg">
<path fill-rule="evenodd" clip-rule="evenodd" d="M11.5356 3.05028C11.9261 2.65975 12.5592 2.65975 12.9498 3.05028C13.3403 3.4408 13.3403 4.07397 12.9498 4.46449L9.41424 8.00003L12.9498 11.5356C13.3403 11.9261 13.3403 12.5592 12.9498 12.9498C12.5592 13.3403 11.9261 13.3403 11.5356 12.9498L8.00003 9.41424L4.46449 12.9498C4.07397 13.3403 3.4408 13.3403 3.05028 12.9498C2.65975 12.5592 2.65975 11.9261 3.05028 11.5356L6.58581 8.00003L3.05028 4.46449C2.65975 4.07397 2.65975 3.4408 3.05028 3.05028C3.4408 2.65975 4.07397 2.65975 4.46449 3.05028L8.00003 6.58581L11.5356 3.05028Z" fill="#EB4B51"/>
</svg>
