<svg width="24" height="24" viewBox="0 0 24 24" fill="none" xmlns="http://www.w3.org/2000/svg">
<path fill-rule="evenodd" clip-rule="evenodd" d="M6.7951 5.30799C6.38445 4.89734 5.71864 4.89734 5.30799 5.30799C4.89734 5.71865 4.89734 6.38445 5.30799 6.7951L10.5129 12L5.30804 17.2049C4.89739 17.6156 4.89739 18.2814 5.30804 18.692C5.71869 19.1027 6.3845 19.1027 6.79515 18.692L12 13.4871L17.2049 18.692C17.6155 19.1026 18.2813 19.1026 18.692 18.692C19.1026 18.2813 19.1026 17.6155 18.692 17.2049L13.4871 12L18.692 6.79512C19.1027 6.38446 19.1027 5.71866 18.692 5.30801C18.2814 4.89735 17.6156 4.89735 17.2049 5.30801L12 10.5129L6.7951 5.30799Z" fill="#B2B0AB"/>
</svg>
